<svg xmlns="http://www.w3.org/2000/svg" viewBox="0 0 24 24">
  <path
    fill="#f3b63f"
    d="M12 7.3A4.7 4.7 0 1 0 12 16.7 4.7 4.7 0 0 0 12 7.3Zm0 7.7a3 3 0 1 1 0-6 3 3 0 0 1 0 6Zm6-7.9a1.1 1.1 0 1 1-2.2 0 1.1 1.1 0 0 1 2.2 0ZM21.1 8.2c0-1.7-.5-3.1-1.5-4.1-1-1-2.4-1.5-4.1-1.5H8.5c-1.7 0-3.1.5-4.1 1.5-1 1-1.5 2.4-1.5 4.1v7.6c0 1.7.5 3.1 1.5 4.1 1 1 2.4 1.5 4.1 1.5h7c1.7 0 3.1-.5 4.1-1.5 1-1 1.5-2.4 1.5-4.1V8.2Zm-1.9 7.5c0 1.2-.3 2.1-.9 2.7-.6.6-1.5.9-2.8.9h-7c-1.3 0-2.2-.3-2.8-.9-.6-.6-.9-1.5-.9-2.7V8.3c0-1.2.3-2.1.9-2.7.6-.6 1.5-.9 2.8-.9h7c1.3 0 2.2.3 2.8.9.6.6.9 1.5.9 2.7v7.4Z"
  />
</svg>
